# xmcd
#
# Track frame offsets:
#	150
#	17153
#	34235
#	51176
#	65881
#	81833
#	98065
#	118891
#	133005
#	148139
#	164655
#	180503
#	195024
#	214662
#	229993
#	245743
#	264363
#	279012
#	293351
#	308251
#
# Disc length: 4305 seconds
#
# Revision: 0
# Processed by: cddbd v1.5.2PL0 Copyright (c) Steve Scherf et al.
# Submitted via: EasyCDDAExtractor 4.5.0.2
#
DISCID=1c10cf14
DTITLE=Various Artist - R&B Love Songs 2010
DYEAR=2010
DGENRE=R&B
TTITLE0=Meet Me Halfway - Black Eyed Pees
TTITLE1=Playing With Fire - N-Dubz feat. Mr Hudson
TTITLE2=Fight For This Love - Cheryle Cole
TTITLE3=Beat Again - JLS
TTITLE4=Down - Jay Sean feat. Lil Wayne
TTITLE5=Lovegame - Lady GaGa
TTITLE6=Forever- Chris Brown
TTITLE7=She Wolf - Shakira
TTITLE8=Break Your Heart - Taio Cruz
TTITLE9=Love Sex Magic - Ciara feat. Justin Timberlake
TTITLE10=Never Leave You - Tinchy Stryder Feat. Amelle
TTITLE11=Kiss Me Thru The Phone - Soulja Boy Tell'em feat Sammie
TTITLE12=Blame It - Jamie Foxx feat. T-Pain
TTITLE13=Forgive Me - Leonna Lewis
TTITLE14=Written On Her - Birdman feat. Jay Sean
TTITLE15=Everything, Everyday, Everywhere - Fabolous feat. Keri Hilson
TTITLE16=Million Dollar Bill - Whitney Houston
TTITLE17=Work - Kelly Rowland
TTITLE18=Beautiful - Akon feat. Colby O Donis and Kardinal Offishall
TTITLE19=Supernova - Mr Hudson feat. Kanye West
EXTD=
EXTT0=
EXTT1=
EXTT2=
EXTT3=
EXTT4=
EXTT5=
EXTT6=
EXTT7=
EXTT8=
EXTT9=
EXTT10=
EXTT11=
EXTT12=
EXTT13=
EXTT14=
EXTT15=
EXTT16=
EXTT17=
EXTT18=
EXTT19=
PLAYORDER=
